<?xml version="1.0" encoding="UTF-8" standalone="no"?>
<svg
   height="36"
   viewBox="0 -960 720 720"
   width="36"
   version="1.1"
   id="svg4"
   sodipodi:docname="save.svg"
   inkscape:version="1.1.2 (0a00cf5339, 2022-02-04)"
   xmlns:inkscape="http://www.inkscape.org/namespaces/inkscape"
   xmlns:sodipodi="http://sodipodi.sourceforge.net/DTD/sodipodi-0.dtd"
   xmlns="http://www.w3.org/2000/svg"
   xmlns:svg="http://www.w3.org/2000/svg">
  <defs
     id="defs8" />
  <sodipodi:namedview
     id="namedview6"
     pagecolor="#ffffff"
     bordercolor="#666666"
     borderopacity="1.0"
     inkscape:pageshadow="2"
     inkscape:pageopacity="0.0"
     inkscape:pagecheckerboard="0"
     showgrid="false"
     fit-margin-top="0"
     fit-margin-left="0"
     fit-margin-right="0"
     fit-margin-bottom="0"
     inkscape:zoom="16.291667"
     inkscape:cx="17.953964"
     inkscape:cy="17.953964"
     inkscape:window-width="1920"
     inkscape:window-height="1016"
     inkscape:window-x="0"
     inkscape:window-y="0"
     inkscape:window-maximized="1"
     inkscape:current-layer="svg4" />
  <path
     d="m 720,-803 v 503 q 0,24 -18,42 -18,18 -42,18 H 60 q -24,0 -42,-18 -18,-18 -18,-42 v -600 q 0,-24 18,-42 18,-18 42,-18 h 503 z m -60,27 -124,-124 H 60 v 600 h 600 z m -300.235,411 q 43.235,0 73.735,-30.265 30.5,-30.264 30.5,-73.5 0,-43.235 -30.265,-73.735 -30.264,-30.5 -73.5,-30.5 -43.235,0 -73.735,30.265 -30.5,30.264 -30.5,73.5 0,43.235 30.265,73.735 30.264,30.5 73.5,30.5 z M 113,-704 H 471 V -847 H 113 Z m -53,-72 v 476 -600 z"
     id="path2" />
</svg>
