<?xml version="1.0" encoding="UTF-8" standalone="no"?>
<!-- Created with Inkscape (http://www.inkscape.org/) -->

<svg
   width="35.489223mm"
   height="36.038158mm"
   viewBox="0 0 35.489223 36.038158"
   version="1.1"
   id="svg6667"
   inkscape:version="1.1.2 (0a00cf5339, 2022-02-04)"
   sodipodi:docname="folder-choice.svg"
   xmlns:inkscape="http://www.inkscape.org/namespaces/inkscape"
   xmlns:sodipodi="http://sodipodi.sourceforge.net/DTD/sodipodi-0.dtd"
   xmlns="http://www.w3.org/2000/svg"
   xmlns:svg="http://www.w3.org/2000/svg">
  <sodipodi:namedview
     id="namedview6669"
     pagecolor="#ffffff"
     bordercolor="#666666"
     borderopacity="1.0"
     inkscape:pageshadow="2"
     inkscape:pageopacity="0.0"
     inkscape:pagecheckerboard="0"
     inkscape:document-units="mm"
     showgrid="false"
     fit-margin-top="0"
     fit-margin-left="0"
     fit-margin-right="0"
     fit-margin-bottom="0"
     inkscape:zoom="0.69664703"
     inkscape:cx="139.9561"
     inkscape:cy="264.84"
     inkscape:window-width="1920"
     inkscape:window-height="1016"
     inkscape:window-x="0"
     inkscape:window-y="0"
     inkscape:window-maximized="1"
     inkscape:current-layer="layer1" />
  <defs
     id="defs6664" />
  <g
     inkscape:label="Layer 1"
     inkscape:groupmode="layer"
     id="layer1"
     transform="translate(-68.089147,-78.069156)">
    <path
       d="m 93.78879,86.535826 q -0.3175,0 -0.555625,-0.24474 -0.238125,-0.24474 -0.238125,-0.54901 v -6.87917 q 0,-0.30427 0.238125,-0.54901 0.238125,-0.24474 0.555625,-0.24474 h 3.717395 l 0.79375,0.79375 h 4.484685 q 0.30427,0 0.54901,0.24474 0.24474,0.24474 0.24474,0.54901 v 6.08542 q 0,0.30427 -0.24474,0.54901 -0.24474,0.24474 -0.54901,0.24474 z m 0,-0.79375 h 8.99583 v -6.08542 h -4.815414 l -0.79375,-0.79375 H 93.78879 Z m 0,0 v -6.87917 z"
       id="path1516"
       style="stroke-width:0.0132292" />
    <path
       d="m 78.137961,88.258886 q -0.3175,0 -0.55562,-0.24474 -0.23813,-0.24474 -0.23813,-0.54901 v -6.87916 q 0,-0.30427 0.23813,-0.54901 0.23812,-0.24474 0.55562,-0.24474 h 3.7174 l 0.79375,0.79375 h 4.48468 q 0.30427,0 0.54901,0.24474 0.24474,0.24474 0.24474,0.54901 v 6.08541 q 0,0.30427 -0.24474,0.54901 -0.24474,0.24474 -0.54901,0.24474 z m 0,-0.79375 h 8.99583 v -6.08541 h -4.81541 l -0.79375,-0.79375 h -3.38667 z m 0,0 v -6.87916 z"
       id="path1525"
       style="stroke-width:0.0132292" />
    <path
       d="m 68.882897,113.47617 q -0.3175,0 -0.55562,-0.24474 -0.23813,-0.24474 -0.23813,-0.54901 v -6.87916 q 0,-0.30427 0.23813,-0.54901 0.23812,-0.24474 0.55562,-0.24474 h 3.7174 l 0.79375,0.79375 h 4.48468 q 0.30427,0 0.54901,0.24474 0.24474,0.24474 0.24474,0.54901 v 6.08541 q 0,0.30427 -0.24474,0.54901 -0.24474,0.24474 -0.54901,0.24474 z m 0,-0.79375 h 8.99583 v -6.08541 h -4.81541 l -0.79375,-0.79375 h -3.38667 z m 0,0 v -6.87916 z"
       id="path1525-3"
       style="stroke-width:0.0132292" />
    <path
       d="m 69.353733,100.34516 q -0.3175,0 -0.55562,-0.24474 -0.23813,-0.244744 -0.23813,-0.549014 v -6.87916 q 0,-0.30427 0.23813,-0.54901 0.23812,-0.24474 0.55562,-0.24474 h 3.7174 l 0.79375,0.79375 h 4.48468 q 0.30427,0 0.54901,0.24474 0.24474,0.24474 0.24474,0.54901 v 6.08541 q 0,0.30427 -0.24474,0.549014 -0.24474,0.24474 -0.54901,0.24474 z m 0,-0.793754 h 8.99583 v -6.08541 h -4.81541 l -0.79375,-0.79375 h -3.38667 z m 0,0 v -6.87916 z"
       id="path1525-5"
       style="stroke-width:0.0132292" />
    <g
       id="g1923"
       transform="translate(45.968737,-36.41146)">
      <path
         d="m 39.82815,132.94551 h 2.444191 v -0.45544 H 39.82815 Z m 0,-1.29042 h 2.444191 v -0.45544 H 39.82815 Z m -0.751475,2.58083 q -0.182175,0 -0.318807,-0.13664 -0.136632,-0.13663 -0.136632,-0.3188 v -5.16165 q 0,-0.18218 0.136632,-0.31881 0.136632,-0.13663 0.318807,-0.13663 h 2.740227 l 1.662353,1.66235 v 3.95474 q 0,0.18217 -0.136631,0.3188 -0.136632,0.13664 -0.318808,0.13664 z m 2.512507,-4.20523 v -1.41186 h -2.512507 v 5.16165 h 3.947141 v -3.74979 z m -2.512507,-1.41186 v 1.41186 -1.41186 5.16165 z"
         id="path1849"
         style="stroke-width:0.00759067" />
    </g>
    <path
       style="fill:#ffd944;fill-opacity:1;stroke:none;stroke-width:0.0586894"
       d="m 93.798561,82.725086 v -2.99315 h 1.454396 1.454399 l 0.34846,0.35213 0.348463,0.35214 h 2.099979 2.099982 v 2.64102 2.64102 h -3.902841 -3.902838 z"
       id="path3008" />
    <path
       style="fill:#ffd944;fill-opacity:1;stroke:none;stroke-width:0.0584459"
       d="m 78.159405,84.478896 v -2.98073 h 1.448361 1.448363 l 0.347015,0.35067 0.347017,0.35068 h 2.091264 2.091268 v 2.63006 2.63005 h -3.886646 -3.886642 z"
       id="path3047" />
    <path
       style="fill:#ffd944;fill-opacity:1;stroke:none;stroke-width:0.0590934"
       d="m 68.871335,109.58817 v -2.98421 h 1.493955 1.493954 l 0.350861,0.35456 0.350859,0.35456 h 2.084887 2.084888 v 2.62965 2.62965 h -3.929701 -3.929703 z"
       id="path3125" />
    <path
       style="fill:#cccccc;fill-opacity:0.599562;stroke:none;stroke-width:0.0666642"
       d="m 85.125496,94.806236 v -2.53323 h 1.199953 1.199951 v 0.69998 0.69996 h 0.733304 0.733304 v 1.83327 1.83325 H 88.81672 c -0.108626,0 -0.350147,-0.13309 -0.635093,-0.34999 l -0.459806,-0.34998 0.301775,-0.0203 0.301771,-0.0203 v -0.263 -0.26301 h -0.657648 c -0.564386,0 -0.682562,-0.0195 -0.833301,-0.13817 l -0.175651,-0.13816 v 0.13816 c 0,0.12562 -0.03938,0.13817 -0.433316,0.13817 h -0.433313 v 0.26666 0.26666 h 0.433313 0.433316 v 0.36665 0.36665 h -0.766634 -0.766637 z m 3.199871,0.23332 v -0.23332 h -1.266616 -1.266613 v 0.23332 0.23332 h 1.266613 1.266616 z"
       id="path3201" />
    <path
       style="fill:#ffd944;fill-opacity:1;stroke:none;stroke-width:0.0597173"
       d="m 69.409309,96.462926 v -3.04558 h 1.47987 1.479872 l 0.354563,0.35831 0.354566,0.3583 h 2.13676 2.136761 v 2.68727 2.68728 h -3.971197 -3.971195 z"
       id="path3086" />
    <g
       id="g4483"
       transform="translate(40.863704,-35.908234)">
      <g
         id="g6172"
         transform="matrix(1.8800233,0,0,1.8800233,-39.965503,-115.91557)">
        <path
           d="m 46.858117,137.9717 1.44198,-2.02407 h 2.88396 l -4.32594,-3.3999 z m 3.43959,3.47927 -1.95792,-4.19365 -2.27542,3.18823 v -9.525 l 7.40834,5.82083 h -3.90261 l 1.91823,4.15396 z m -1.99761,-5.50334 z"
           id="path1507"
           style="stroke-width:0.0132292" />
        <path
           style="fill:#ffffff;fill-opacity:1;stroke:none;stroke-width:0.0167847"
           d="m 46.86834,135.26061 c 0,-2.56174 0.0013,-2.69031 0.02937,-2.66639 0.01617,0.0138 0.98089,0.77219 2.143855,1.68527 l 2.114484,1.66014 -1.427977,0.004 -1.427975,0.004 -0.70154,0.98601 c -0.385847,0.54231 -0.707993,0.99319 -0.715881,1.00196 -0.0079,0.009 -0.01434,-1.18583 -0.01434,-2.67557 z"
           id="path4123" />
      </g>
      <path
         style="fill:#cccccc;fill-opacity:1;stroke:none;stroke-width:0.0391522"
         d="m 48.148063,138.37793 c 0,-2.24078 0.01047,-4.07415 0.02326,-4.07415 0.03838,0 0.126179,0.0686 6.097225,4.76481 l 0.462988,0.36413 -2.205261,0.001 -2.205263,0.001 -1.057109,1.4897 c -0.581411,0.81934 -1.070324,1.49815 -1.086475,1.50848 -0.01615,0.0103 -0.02936,-1.81459 -0.02936,-4.05537 z"
         id="path6248" />
    </g>
  </g>
</svg>
