<?xml version="1.0" encoding="UTF-8" standalone="no"?>
<svg
   height="40"
   viewBox="0 -960 800 800"
   width="40"
   version="1.1"
   id="svg4"
   sodipodi:docname="play.svg"
   inkscape:version="1.1.2 (0a00cf5339, 2022-02-04)"
   xmlns:inkscape="http://www.inkscape.org/namespaces/inkscape"
   xmlns:sodipodi="http://sodipodi.sourceforge.net/DTD/sodipodi-0.dtd"
   xmlns="http://www.w3.org/2000/svg"
   xmlns:svg="http://www.w3.org/2000/svg">
  <defs
     id="defs8" />
  <sodipodi:namedview
     id="namedview6"
     pagecolor="#ffffff"
     bordercolor="#666666"
     borderopacity="1.0"
     inkscape:pageshadow="2"
     inkscape:pageopacity="0.0"
     inkscape:pagecheckerboard="0"
     showgrid="false"
     fit-margin-top="0"
     fit-margin-left="0"
     fit-margin-right="0"
     fit-margin-bottom="0"
     inkscape:zoom="16.291667"
     inkscape:cx="19.97954"
     inkscape:cy="19.97954"
     inkscape:window-width="1920"
     inkscape:window-height="1016"
     inkscape:window-x="0"
     inkscape:window-y="0"
     inkscape:window-maximized="1"
     inkscape:current-layer="svg4" />
  <path
     d="M 303,-390 570,-560 303,-730 Z m 97,230 q -82,0 -155,-31.5 -73,-31.5 -127.5,-86 Q 63,-332 31.5,-405 0,-478 0,-560 q 0,-83 31.5,-156 31.5,-73 86,-127 54.5,-54 127.5,-85.5 73,-31.5 155,-31.5 83,0 156,31.5 73,31.5 127,85.5 54,54 85.5,127 31.5,73 31.5,156 0,82 -31.5,155 -31.5,73 -85.5,127.5 -54,54.5 -127,86 -73,31.5 -156,31.5 z m 0,-60 q 142,0 241,-99.5 99,-99.5 99,-240.5 0,-142 -99,-241 -99,-99 -241,-99 -141,0 -240.5,99 -99.5,99 -99.5,241 0,141 99.5,240.5 Q 259,-220 400,-220 Z m 0,-340 z"
     id="path2" />
</svg>
