<?xml version="1.0" encoding="UTF-8" standalone="no"?>
<!-- Created with Inkscape (http://www.inkscape.org/) -->

<svg
   width="23.908291mm"
   height="31.379629mm"
   viewBox="0 0 23.908291 31.379629"
   version="1.1"
   id="svg6444"
   inkscape:version="1.1.2 (0a00cf5339, 2022-02-04)"
   sodipodi:docname="lock.svg"
   xmlns:inkscape="http://www.inkscape.org/namespaces/inkscape"
   xmlns:sodipodi="http://sodipodi.sourceforge.net/DTD/sodipodi-0.dtd"
   xmlns="http://www.w3.org/2000/svg"
   xmlns:svg="http://www.w3.org/2000/svg">
  <sodipodi:namedview
     id="namedview6446"
     pagecolor="#ffffff"
     bordercolor="#666666"
     borderopacity="1.0"
     inkscape:pageshadow="2"
     inkscape:pageopacity="0.0"
     inkscape:pagecheckerboard="0"
     inkscape:document-units="mm"
     showgrid="false"
     fit-margin-top="0"
     fit-margin-left="0"
     fit-margin-right="0"
     fit-margin-bottom="0"
     inkscape:zoom="0.69664703"
     inkscape:cx="168.66504"
     inkscape:cy="524.65594"
     inkscape:window-width="1920"
     inkscape:window-height="1016"
     inkscape:window-x="0"
     inkscape:window-y="0"
     inkscape:window-maximized="1"
     inkscape:current-layer="layer1" />
  <defs
     id="defs6441" />
  <g
     inkscape:label="Layer 1"
     inkscape:groupmode="layer"
     id="layer1"
     transform="translate(-59.827185,-9.376681)">
    <path
       d="m 62.068586,40.756311 q -0.924573,0 -1.583001,-0.65843 -0.6584,-0.6584 -0.6584,-1.582966 v -16.21281 q 0,-0.924587 0.6584,-1.582999 0.658428,-0.658411 1.583001,-0.658411 h 2.614964 v -3.586242 q 0,-2.945576 2.077253,-5.021674 2.077253,-2.076098 5.024494,-2.076098 2.947214,0 5.020514,2.076098 2.073271,2.076098 2.073271,5.021674 v 3.586242 h 2.614992 q 0.924573,0 1.582973,0.658411 0.658428,0.658412 0.658428,1.582999 v 16.21281 q 0,0.924566 -0.658428,1.582966 -0.6584,0.65843 -1.582973,0.65843 z m 0,-2.241396 H 81.494074 V 22.302105 H 62.068586 Z m 9.719027,-5.229958 q 1.189136,0 2.029644,-0.823 0.840536,-0.823 0.840536,-1.978758 0,-1.120687 -0.846805,-2.035913 -0.846805,-0.915254 -2.035941,-0.915254 -1.189136,0 -2.029672,0.915254 -0.840508,0.915226 -0.840508,2.054606 0,1.139381 0.846805,1.961223 0.846777,0.821842 2.035941,0.821842 z M 66.924951,20.060695 h 9.71273 v -3.586242 q 0,-2.023499 -1.415126,-3.439915 -1.415182,-1.416456 -3.436834,-1.416456 -2.021652,0 -3.441211,1.416456 -1.419559,1.416416 -1.419559,3.439915 z m -4.856365,18.45422 v -16.21281 z"
       id="path1534"
       style="stroke-width:0.0373568" />
    <path
       style="fill:#ffd944;fill-opacity:1;stroke:none;stroke-width:0.171311"
       d="m 62.068586,31.234203 v -7.280712 h 8.651199 8.651199 v 7.280712 7.280712 h -8.651199 -8.651199 z m 10.225909,2.178942 c 2.174455,-1.548347 0.718585,-5.089036 -1.968013,-4.786217 -1.257037,0.141687 -2.262568,1.354372 -2.261374,2.727251 7.16e-4,0.888106 0.468536,1.719554 1.239796,2.203732 0.742129,0.465889 2.23342,0.393675 2.989591,-0.144766 z"
       id="path6051" />
  </g>
</svg>
