<?xml version="1.0" encoding="UTF-8" standalone="no"?>
<svg
   height="41.950001"
   viewBox="0 -960 720 839.00002"
   width="36"
   version="1.1"
   id="svg4"
   sodipodi:docname="time.svg"
   inkscape:version="1.1.2 (0a00cf5339, 2022-02-04)"
   xmlns:inkscape="http://www.inkscape.org/namespaces/inkscape"
   xmlns:sodipodi="http://sodipodi.sourceforge.net/DTD/sodipodi-0.dtd"
   xmlns="http://www.w3.org/2000/svg"
   xmlns:svg="http://www.w3.org/2000/svg">
  <defs
     id="defs8" />
  <sodipodi:namedview
     id="namedview6"
     pagecolor="#ffffff"
     bordercolor="#666666"
     borderopacity="1.0"
     inkscape:pageshadow="2"
     inkscape:pageopacity="0.0"
     inkscape:pagecheckerboard="0"
     showgrid="false"
     fit-margin-top="0"
     fit-margin-left="0"
     fit-margin-right="0"
     fit-margin-bottom="0"
     inkscape:zoom="16.291667"
     inkscape:cx="17.953964"
     inkscape:cy="21.943734"
     inkscape:window-width="1920"
     inkscape:window-height="1016"
     inkscape:window-x="0"
     inkscape:window-y="0"
     inkscape:window-maximized="1"
     inkscape:current-layer="svg4" />
  <path
     d="m 240,-900 v -60 h 240 v 60 z m 90,447 h 60 v -230 h -60 z m 30,332 q -74,0 -139.5,-28.5 Q 155,-178 106,-227 57,-276 28.5,-341.5 0,-407 0,-481 0,-555 28.5,-620.5 57,-686 106,-735 155,-784 220.5,-812.5 286,-841 360,-841 q 67,0 126,22.5 59,22.5 105,62.5 l 51,-51 42,42 -51,51 q 36,40 61.5,97 25.5,57 25.5,136 0,74 -28.5,139.5 Q 663,-276 614,-227 565,-178 499.5,-149.5 434,-121 360,-121 Z m 0,-60 q 125,0 212.5,-87.5 Q 660,-356 660,-481 660,-606 572.5,-693.5 485,-781 360,-781 235,-781 147.5,-693.5 60,-606 60,-481 60,-356 147.5,-268.5 235,-181 360,-181 Z m 0,-299 z"
     id="path2" />
</svg>
