<?xml version="1.0" encoding="UTF-8" standalone="no"?>
<svg
   height="41.950001"
   viewBox="0 -960 720 839.00002"
   width="36"
   version="1.1"
   id="svg4"
   sodipodi:docname="try.svg"
   inkscape:version="1.1.2 (0a00cf5339, 2022-02-04)"
   xmlns:inkscape="http://www.inkscape.org/namespaces/inkscape"
   xmlns:sodipodi="http://sodipodi.sourceforge.net/DTD/sodipodi-0.dtd"
   xmlns="http://www.w3.org/2000/svg"
   xmlns:svg="http://www.w3.org/2000/svg">
  <defs
     id="defs8" />
  <sodipodi:namedview
     id="namedview6"
     pagecolor="#ffffff"
     bordercolor="#666666"
     borderopacity="1.0"
     inkscape:pageshadow="2"
     inkscape:pageopacity="0.0"
     inkscape:pagecheckerboard="0"
     showgrid="false"
     fit-margin-top="0"
     fit-margin-left="0"
     fit-margin-right="0"
     fit-margin-bottom="0"
     inkscape:zoom="16.291667"
     inkscape:cx="17.953964"
     inkscape:cy="21.943734"
     inkscape:window-width="1920"
     inkscape:window-height="1016"
     inkscape:window-x="0"
     inkscape:window-y="0"
     inkscape:window-maximized="1"
     inkscape:current-layer="svg4" />
  <path
     d="m 360,-121 q -75,0 -140.5,-28 Q 154,-177 105,-226 56,-275 28,-340.5 0,-406 0,-481 h 60 q 0,125 87.5,212.5 87.5,87.5 212.5,87.5 125,0 212.5,-87.5 Q 660,-356 660,-481 660,-606 575,-693.5 490,-781 365,-781 h -23 l 73,73 -41,42 -147,-147 147,-147 41,41 -78,78 h 23 q 75,0 140.5,28 65.5,28 114.5,77 49,49 77,114.5 28,65.5 28,140.5 0,75 -28,140.5 -28,65.5 -77,114.5 -49,49 -114.5,77 -65.5,28 -140.5,28 z"
     id="path2" />
</svg>
